<svg xmlns="http://www.w3.org/2000/svg" xmlns:xlink="http://www.w3.org/1999/xlink" xmlns:lucid="lucid" width="1263" height="905"><g transform="translate(-659.5 140.5)" lucid:page-tab-id="0_0"><path d="M500-500h1500v1500H500z" fill="#fff"/><path d="M1096.4 228h4.84a12 12 0 0 0 12-12V-88a12 12 0 0 1 12-12h4.26" stroke="#333" fill="none"/><path d="M1077.2 218l20 10-20 10" stroke="#333" fill="#fff" fill-opacity="0"/><path d="M1077.2 228h20M1129.5-110v20M1149.5-100h-20" stroke="#333" fill="#fff"/><path d="M723.52 145a5 5 0 0 1 5-5h342.96a5 5 0 0 1 5 5v254a5 5 0 0 1-5 5H728.52a5 5 0 0 1-5-5z" fill="#fff"/><path d="M723.52 180v-35a5 5 0 0 1 5-5h342.96a5 5 0 0 1 5 5v35" fill="#dedeff"/><path d="M723.52 145a5 5 0 0 1 5-5h342.96a5 5 0 0 1 5 5v254a5 5 0 0 1-5 5H728.52a5 5 0 0 1-5-5zM723.52 180h352.96M900 180v224" stroke="#282c33" fill="none"/><use xlink:href="#a" transform="matrix(1,0,0,1,733.5228773981526,140) translate(0 23.6)"/><use xlink:href="#b" transform="matrix(1,0,0,1,728.5228773981526,182.5) translate(0 17.1)"/><use xlink:href="#c" transform="matrix(1,0,0,1,905,182.5) translate(0 17.1)"/><use xlink:href="#d" transform="matrix(1,0,0,1,728.5228773981526,214.5) translate(0 17.1)"/><use xlink:href="#d" transform="matrix(1,0,0,1,905,214.5) translate(0 17.1)"/><use xlink:href="#e" transform="matrix(1,0,0,1,728.5228773981526,246.5) translate(0 17.1)"/><use xlink:href="#f" transform="matrix(1,0,0,1,905,246.5) translate(0 17.1)"/><use xlink:href="#g" transform="matrix(1,0,0,1,728.5228773981526,278.5) translate(0 17.1)"/><use xlink:href="#h" transform="matrix(1,0,0,1,905,278.5) translate(0 17.1)"/><use xlink:href="#i" transform="matrix(1,0,0,1,728.5228773981526,310.5) translate(0 17.1)"/><use xlink:href="#j" transform="matrix(1,0,0,1,905,310.5) translate(0 17.1)"/><use xlink:href="#k" transform="matrix(1,0,0,1,728.5228773981526,342.5) translate(0 17.1)"/><use xlink:href="#k" transform="matrix(1,0,0,1,905,342.5) translate(0 17.1)"/><use xlink:href="#l" transform="matrix(1,0,0,1,728.5228773981526,374.5) translate(0 17.1)"/><use xlink:href="#m" transform="matrix(1,0,0,1,905,374.5) translate(0 17.1)"/><path d="M1150-115a5 5 0 0 1 5-5h270a5 5 0 0 1 5 5v446a5 5 0 0 1-5 5h-270a5 5 0 0 1-5-5z" fill="#fff"/><path d="M1150-80v-35a5 5 0 0 1 5-5h270a5 5 0 0 1 5 5v35" fill="#dedeff"/><path d="M1150-115a5 5 0 0 1 5-5h270a5 5 0 0 1 5 5v446a5 5 0 0 1-5 5h-270a5 5 0 0 1-5-5zM1150-80h280M1290-80v416" stroke="#282c33" fill="none"/><use xlink:href="#d" transform="matrix(1,0,0,1,1160,-120) translate(0 23.6)"/><use xlink:href="#b" transform="matrix(1,0,0,1,1155,-77.5) translate(0 17.1)"/><use xlink:href="#c" transform="matrix(1,0,0,1,1295,-77.5) translate(0 17.1)"/><use xlink:href="#n" transform="matrix(1,0,0,1,1155,-45.5) translate(0 17.1)"/><use xlink:href="#o" transform="matrix(1,0,0,1,1295,-45.5) translate(0 17.1)"/><use xlink:href="#p" transform="matrix(1,0,0,1,1155,-13.5) translate(0 17.1)"/><use xlink:href="#o" transform="matrix(1,0,0,1,1295,-13.5) translate(0 17.1)"/><use xlink:href="#q" transform="matrix(1,0,0,1,1155,18.5) translate(0 17.1)"/><use xlink:href="#o" transform="matrix(1,0,0,1,1295,18.5) translate(0 17.1)"/><use xlink:href="#r" transform="matrix(1,0,0,1,1155,50.5) translate(0 17.1)"/><use xlink:href="#m" transform="matrix(1,0,0,1,1295,50.5) translate(0 17.1)"/><use xlink:href="#s" transform="matrix(1,0,0,1,1155,82.5) translate(0 17.1)"/><use xlink:href="#o" transform="matrix(1,0,0,1,1295,82.5) translate(0 17.1)"/><use xlink:href="#t" transform="matrix(1,0,0,1,1155,114.5) translate(0 17.1)"/><use xlink:href="#o" transform="matrix(1,0,0,1,1295,114.5) translate(0 17.1)"/><use xlink:href="#u" transform="matrix(1,0,0,1,1155,146.5) translate(0 17.1)"/><use xlink:href="#m" transform="matrix(1,0,0,1,1295,146.5) translate(0 17.1)"/><use xlink:href="#v" transform="matrix(1,0,0,1,1155,178.5) translate(0 17.1)"/><use xlink:href="#o" transform="matrix(1,0,0,1,1295,178.5) translate(0 17.1)"/><use xlink:href="#w" transform="matrix(1,0,0,1,1155,210.5) translate(0 17.1)"/><use xlink:href="#o" transform="matrix(1,0,0,1,1295,210.5) translate(0 17.1)"/><use xlink:href="#x" transform="matrix(1,0,0,1,1155,242.5) translate(0 17.1)"/><use xlink:href="#o" transform="matrix(1,0,0,1,1295,242.5) translate(0 17.1)"/><use xlink:href="#y" transform="matrix(1,0,0,1,1155,274.5) translate(0 17.1)"/><use xlink:href="#o" transform="matrix(1,0,0,1,1295,274.5) translate(0 17.1)"/><use xlink:href="#z" transform="matrix(1,0,0,1,1155,306.5) translate(0 17.1)"/><use xlink:href="#A" transform="matrix(1,0,0,1,1295,306.5) translate(0 17.1)"/><path d="M1150 405a5 5 0 0 1 5-5h290a5 5 0 0 1 5 5v286a5 5 0 0 1-5 5h-290a5 5 0 0 1-5-5z" fill="#fff"/><path d="M1150 440v-35a5 5 0 0 1 5-5h290a5 5 0 0 1 5 5v35" fill="#dedeff"/><path d="M1150 405a5 5 0 0 1 5-5h290a5 5 0 0 1 5 5v286a5 5 0 0 1-5 5h-290a5 5 0 0 1-5-5zM1150 440h300M1306.77 440v256" stroke="#282c33" fill="none"/><use xlink:href="#g" transform="matrix(1,0,0,1,1160,400) translate(0 23.6)"/><use xlink:href="#b" transform="matrix(1,0,0,1,1155,442.5) translate(0 17.1)"/><use xlink:href="#c" transform="matrix(1,0,0,1,1311.774218904967,442.5) translate(0 17.1)"/><use xlink:href="#B" transform="matrix(1,0,0,1,1155,474.5) translate(0 17.1)"/><use xlink:href="#B" transform="matrix(1,0,0,1,1311.774218904967,474.5) translate(0 17.1)"/><use xlink:href="#C" transform="matrix(1,0,0,1,1155,506.5) translate(0 17.1)"/><use xlink:href="#f" transform="matrix(1,0,0,1,1311.774218904967,506.5) translate(0 17.1)"/><use xlink:href="#D" transform="matrix(1,0,0,1,1155,538.5) translate(0 17.1)"/><use xlink:href="#f" transform="matrix(1,0,0,1,1311.774218904967,538.5) translate(0 17.1)"/><use xlink:href="#E" transform="matrix(1,0,0,1,1155,570.5) translate(0 17.1)"/><use xlink:href="#c" transform="matrix(1,0,0,1,1311.774218904967,570.5) translate(0 17.1)"/><use xlink:href="#F" transform="matrix(1,0,0,1,1155,602.5) translate(0 17.1)"/><use xlink:href="#c" transform="matrix(1,0,0,1,1311.774218904967,602.5) translate(0 17.1)"/><use xlink:href="#G" transform="matrix(1,0,0,1,1155,634.5) translate(0 17.1)"/><use xlink:href="#j" transform="matrix(1,0,0,1,1311.774218904967,634.5) translate(0 17.1)"/><use xlink:href="#H" transform="matrix(1,0,0,1,1155,666.5) translate(0 17.1)"/><use xlink:href="#I" transform="matrix(1,0,0,1,1311.774218904967,666.5) translate(0 17.1)"/><path d="M1096.98 292h4.26a12 12 0 0 1 12 12v104a12 12 0 0 0 12 12h4.85" stroke="#3a414a" fill="none"/><path d="M1096.98 302v-20M1076.98 292h20" stroke="#3a414a" fill="#fff"/><path d="M1149.28 430l-20-10 20-10" stroke="#3a414a" fill="#fff" fill-opacity="0"/><path d="M1149.28 420h-20" stroke="#3a414a" fill="#fff"/><path d="M1520 421a5 5 0 0 1 5-5h350a5 5 0 0 1 5 5v318a5 5 0 0 1-5 5h-350a5 5 0 0 1-5-5z" fill="#fff"/><path d="M1520 456v-35a5 5 0 0 1 5-5h350a5 5 0 0 1 5 5v35" fill="#dedeff"/><path d="M1520 421a5 5 0 0 1 5-5h350a5 5 0 0 1 5 5v318a5 5 0 0 1-5 5h-350a5 5 0 0 1-5-5zM1520 456h360M1713.65 456v288" stroke="#282c33" fill="none"/><use xlink:href="#B" transform="matrix(1,0,0,1,1530,416) translate(0 23.6)"/><use xlink:href="#b" transform="matrix(1,0,0,1,1525,458.5) translate(0 17.1)"/><use xlink:href="#c" transform="matrix(1,0,0,1,1718.6488102337717,458.5) translate(0 17.1)"/><use xlink:href="#J" transform="matrix(1,0,0,1,1525,490.5) translate(0 17.1)"/><use xlink:href="#o" transform="matrix(1,0,0,1,1718.6488102337717,490.5) translate(0 17.1)"/><use xlink:href="#K" transform="matrix(1,0,0,1,1525,522.5) translate(0 17.1)"/><use xlink:href="#j" transform="matrix(1,0,0,1,1718.6488102337717,522.5) translate(0 17.1)"/><use xlink:href="#L" transform="matrix(1,0,0,1,1525,554.5) translate(0 17.1)"/><use xlink:href="#j" transform="matrix(1,0,0,1,1718.6488102337717,554.5) translate(0 17.1)"/><use xlink:href="#M" transform="matrix(1,0,0,1,1525,586.5) translate(0 17.1)"/><use xlink:href="#c" transform="matrix(1,0,0,1,1718.6488102337717,586.5) translate(0 17.1)"/><use xlink:href="#N" transform="matrix(1,0,0,1,1525,618.5) translate(0 17.1)"/><use xlink:href="#c" transform="matrix(1,0,0,1,1718.6488102337717,618.5) translate(0 17.1)"/><use xlink:href="#O" transform="matrix(1,0,0,1,1525,650.5) translate(0 17.1)"/><use xlink:href="#P" transform="matrix(1,0,0,1,1718.6488102337717,650.5) translate(0 17.1)"/><use xlink:href="#Q" transform="matrix(1,0,0,1,1525,682.5) translate(0 17.1)"/><use xlink:href="#o" transform="matrix(1,0,0,1,1718.6488102337717,682.5) translate(0 17.1)"/><use xlink:href="#R" transform="matrix(1,0,0,1,1525,714.5) translate(0 17.1)"/><use xlink:href="#S" transform="matrix(1,0,0,1,1718.6488102337717,714.5) translate(0 17.1)"/><path d="M1499.5 436h-2.5a12 12 0 0 0-12 12v28a12 12 0 0 1-12 12h-3.1" stroke="#3a414a" fill="none"/><path d="M1499.5 426v20M1519.5 436h-20" stroke="#3a414a" fill="#fff"/><path d="M1450.72 478l20 10-20 10" stroke="#3a414a" fill="#fff" fill-opacity="0"/><path d="M1450.72 488h20" stroke="#3a414a" fill="#fff"/><path d="M1520 265a5 5 0 0 1 5-5h350a5 5 0 0 1 5 5v94a5 5 0 0 1-5 5h-350a5 5 0 0 1-5-5z" fill="#fff"/><path d="M1520 300v-35a5 5 0 0 1 5-5h350a5 5 0 0 1 5 5v35" fill="#dedeff"/><path d="M1520 265a5 5 0 0 1 5-5h350a5 5 0 0 1 5 5v94a5 5 0 0 1-5 5h-350a5 5 0 0 1-5-5zM1520 300h360M1713.65 300v64" stroke="#282c33" fill="none"/><use xlink:href="#T" transform="matrix(1,0,0,1,1530,260) translate(0 23.6)"/><use xlink:href="#b" transform="matrix(1,0,0,1,1525,302.5) translate(0 17.1)"/><use xlink:href="#c" transform="matrix(1,0,0,1,1718.6488102337717,302.5) translate(0 17.1)"/><use xlink:href="#U" transform="matrix(1,0,0,1,1525,334.5) translate(0 17.1)"/><use xlink:href="#o" transform="matrix(1,0,0,1,1718.6488102337717,334.5) translate(0 17.1)"/><path d="M1900.5 664h8a12 12 0 0 0 12-12V292a12 12 0 0 0-12-12h-8.6" stroke="#3a414a" fill="none"/><path d="M1900.5 674v-20M1880.5 664h20" stroke="#3a414a" fill="#fff"/><path d="M1880.72 270l20 10-20 10" stroke="#3a414a" fill="#fff" fill-opacity="0"/><path d="M1880.72 280h20" stroke="#3a414a" fill="#fff"/><path d="M680 565a5 5 0 0 1 5-5h350a5 5 0 0 1 5 5v126a5 5 0 0 1-5 5H685a5 5 0 0 1-5-5z" fill="#fff"/><path d="M680 600v-35a5 5 0 0 1 5-5h350a5 5 0 0 1 5 5v35" fill="#dedeff"/><path d="M680 565a5 5 0 0 1 5-5h350a5 5 0 0 1 5 5v126a5 5 0 0 1-5 5H685a5 5 0 0 1-5-5zM680 600h360M873.65 600v96" stroke="#282c33" fill="none"/><use xlink:href="#V" transform="matrix(1,0,0,1,690,560) translate(0 23.6)"/><use xlink:href="#b" transform="matrix(1,0,0,1,685,602.5) translate(0 17.1)"/><use xlink:href="#c" transform="matrix(1,0,0,1,878.6488102337717,602.5) translate(0 17.1)"/><use xlink:href="#J" transform="matrix(1,0,0,1,685,634.5) translate(0 17.1)"/><use xlink:href="#o" transform="matrix(1,0,0,1,878.6488102337717,634.5) translate(0 17.1)"/><use xlink:href="#W" transform="matrix(1,0,0,1,685,666.5) translate(0 17.1)"/><use xlink:href="#j" transform="matrix(1,0,0,1,878.6488102337717,666.5) translate(0 17.1)"/><path d="M1129.5 616H1107a12 12 0 0 1-12-12v-12a12 12 0 0 0-12-12h-23.1" stroke="#3a414a" fill="none"/><path d="M1129.5 606v20M1149.5 616h-20" stroke="#3a414a" fill="#fff"/><path d="M1040.72 570l20 10-20 10" stroke="#3a414a" fill="#fff" fill-opacity="0"/><path d="M1040.72 580h20" stroke="#3a414a" fill="#fff"/><path d="M720-35a5 5 0 0 1 5-5h350a5 5 0 0 1 5 5v94a5 5 0 0 1-5 5H725a5 5 0 0 1-5-5z" fill="#fff"/><path d="M720 0v-35a5 5 0 0 1 5-5h350a5 5 0 0 1 5 5V0" fill="#dedeff"/><path d="M720-35a5 5 0 0 1 5-5h350a5 5 0 0 1 5 5v94a5 5 0 0 1-5 5H725a5 5 0 0 1-5-5zM720 0h360M913.65 0v64" stroke="#282c33" fill="none"/><use xlink:href="#k" transform="matrix(1,0,0,1,730,-40) translate(0 23.6)"/><use xlink:href="#b" transform="matrix(1,0,0,1,725,2.5) translate(0 17.1)"/><use xlink:href="#c" transform="matrix(1,0,0,1,918.6488102337717,2.5) translate(0 17.1)"/><use xlink:href="#J" transform="matrix(1,0,0,1,725,34.5) translate(0 17.1)"/><use xlink:href="#o" transform="matrix(1,0,0,1,918.6488102337717,34.5) translate(0 17.1)"/><path d="M699.5-20h-8a12 12 0 0 0-12 12v352a12 12 0 0 0 12 12h12.1" stroke="#3a414a" fill="none"/><path d="M699.5-30v20M719.5-20h-20" stroke="#3a414a" fill="#fff"/><path d="M722.8 366l-20-10 20-10" stroke="#3a414a" fill="#fff" fill-opacity="0"/><path d="M722.8 356h-20" stroke="#3a414a" fill="#fff"/><defs><path fill="#333" d="M160-131c35 5 61 23 61 61C221 17 115-2 30 0v-248c76 3 177-17 177 60 0 33-19 50-47 57zm-97-11c50-1 110 9 110-42 0-47-63-36-110-37v79zm0 115c55-2 124 14 124-45 0-56-70-42-124-44v89" id="X"/><path fill="#333" d="M100-194c62-1 85 37 85 99 1 63-27 99-86 99S16-35 15-95c0-66 28-99 85-99zM99-20c44 1 53-31 53-75 0-43-8-75-51-75s-53 32-53 75 10 74 51 75" id="Y"/><path fill="#333" d="M143 0L79-87 56-68V0H24v-261h32v163l83-92h37l-77 82L181 0h-38" id="Z"/><path fill="#333" d="M24-231v-30h32v30H24zM24 0v-190h32V0H24" id="aa"/><path fill="#333" d="M117-194c89-4 53 116 60 194h-32v-121c0-31-8-49-39-48C34-167 62-67 57 0H25l-1-190h30c1 10-1 24 2 32 11-22 29-35 61-36" id="ab"/><path fill="#333" d="M177-190C167-65 218 103 67 71c-23-6-38-20-44-43l32-5c15 47 100 32 89-28v-30C133-14 115 1 83 1 29 1 15-40 15-95c0-56 16-97 71-98 29-1 48 16 59 35 1-10 0-23 2-32h30zM94-22c36 0 50-32 50-73 0-42-14-75-50-75-39 0-46 34-46 75s6 73 46 73" id="ac"/><g id="a"><use transform="matrix(0.05,0,0,0.05,0,0)" xlink:href="#X"/><use transform="matrix(0.05,0,0,0.05,12,0)" xlink:href="#Y"/><use transform="matrix(0.05,0,0,0.05,22,0)" xlink:href="#Y"/><use transform="matrix(0.05,0,0,0.05,32,0)" xlink:href="#Z"/><use transform="matrix(0.05,0,0,0.05,41,0)" xlink:href="#aa"/><use transform="matrix(0.05,0,0,0.05,44.95,0)" xlink:href="#ab"/><use transform="matrix(0.05,0,0,0.05,54.95,0)" xlink:href="#ac"/></g><path fill="#333" d="M33 0v-248h34V0H33" id="ad"/><path fill="#333" d="M85-194c31 0 48 13 60 33l-1-100h32l1 261h-30c-2-10 0-23-3-31C134-8 116 4 85 4 32 4 16-35 15-94c0-66 23-100 70-100zm9 24c-40 0-46 34-46 75 0 40 6 74 45 74 42 0 51-32 51-76 0-42-9-74-50-73" id="ae"/><g id="b"><use transform="matrix(0.05,0,0,0.05,0,0)" xlink:href="#ad"/><use transform="matrix(0.05,0,0,0.05,5,0)" xlink:href="#ae"/></g><path fill="#333" d="M59-47c-2 24 18 29 38 22v24C64 9 27 4 27-40v-127H5v-23h24l9-43h21v43h35v23H59v120" id="af"/><g id="c"><use transform="matrix(0.05,0,0,0.05,0,0)" xlink:href="#aa"/><use transform="matrix(0.05,0,0,0.05,3.95,0)" xlink:href="#ab"/><use transform="matrix(0.05,0,0,0.05,13.949999999999998,0)" xlink:href="#af"/></g><path fill="#333" d="M143 4C61 4 22-44 18-125c-5-107 100-154 193-111 17 8 29 25 37 43l-32 9c-13-25-37-40-76-40-61 0-88 39-88 99 0 61 29 100 91 101 35 0 62-11 79-27v-45h-74v-28h105v86C228-13 192 4 143 4" id="ag"/><path fill="#333" d="M84 4C-5 8 30-112 23-190h32v120c0 31 7 50 39 49 72-2 45-101 50-169h31l1 190h-30c-1-10 1-25-2-33-11 22-28 36-60 37" id="ah"/><path fill="#333" d="M100-194c63 0 86 42 84 106H49c0 40 14 67 53 68 26 1 43-12 49-29l28 8c-11 28-37 45-77 45C44 4 14-33 15-96c1-61 26-98 85-98zm52 81c6-60-76-77-97-28-3 7-6 17-6 28h103" id="ai"/><path fill="#333" d="M135-143c-3-34-86-38-87 0 15 53 115 12 119 90S17 21 10-45l28-5c4 36 97 45 98 0-10-56-113-15-118-90-4-57 82-63 122-42 12 7 21 19 24 35" id="aj"/><g id="d"><use transform="matrix(0.05,0,0,0.05,0,0)" xlink:href="#ag"/><use transform="matrix(0.05,0,0,0.05,14,0)" xlink:href="#ah"/><use transform="matrix(0.05,0,0,0.05,24,0)" xlink:href="#ai"/><use transform="matrix(0.05,0,0,0.05,34,0)" xlink:href="#aj"/><use transform="matrix(0.05,0,0,0.05,43,0)" xlink:href="#af"/></g><path fill="#333" d="M212-179c-10-28-35-45-73-45-59 0-87 40-87 99 0 60 29 101 89 101 43 0 62-24 78-52l27 14C228-24 195 4 139 4 59 4 22-46 18-125c-6-104 99-153 187-111 19 9 31 26 39 46" id="ak"/><path fill="#333" d="M114-163C36-179 61-72 57 0H25l-1-190h30c1 12-1 29 2 39 6-27 23-49 58-41v29" id="al"/><path fill="#333" d="M141-36C126-15 110 5 73 4 37 3 15-17 15-53c-1-64 63-63 125-63 3-35-9-54-41-54-24 1-41 7-42 31l-33-3c5-37 33-52 76-52 45 0 72 20 72 64v82c-1 20 7 32 28 27v20c-31 9-61-2-59-35zM48-53c0 20 12 33 32 33 41-3 63-29 60-74-43 2-92-5-92 41" id="am"/><path fill="#333" d="M30-248c118-7 216 8 213 122C240-48 200 0 122 0H30v-248zM63-27c89 8 146-16 146-99s-60-101-146-95v194" id="an"/><g id="e"><use transform="matrix(0.05,0,0,0.05,0,0)" xlink:href="#X"/><use transform="matrix(0.05,0,0,0.05,12,0)" xlink:href="#Y"/><use transform="matrix(0.05,0,0,0.05,22,0)" xlink:href="#Y"/><use transform="matrix(0.05,0,0,0.05,32,0)" xlink:href="#Z"/><use transform="matrix(0.05,0,0,0.05,41,0)" xlink:href="#aa"/><use transform="matrix(0.05,0,0,0.05,44.95,0)" xlink:href="#ab"/><use transform="matrix(0.05,0,0,0.05,54.95,0)" xlink:href="#ac"/><use transform="matrix(0.05,0,0,0.05,64.95,0)" xlink:href="#ak"/><use transform="matrix(0.05,0,0,0.05,77.9,0)" xlink:href="#al"/><use transform="matrix(0.05,0,0,0.05,83.85000000000001,0)" xlink:href="#ai"/><use transform="matrix(0.05,0,0,0.05,93.85000000000001,0)" xlink:href="#am"/><use transform="matrix(0.05,0,0,0.05,103.85000000000001,0)" xlink:href="#af"/><use transform="matrix(0.05,0,0,0.05,108.85000000000001,0)" xlink:href="#ai"/><use transform="matrix(0.05,0,0,0.05,118.85000000000001,0)" xlink:href="#ae"/><use transform="matrix(0.05,0,0,0.05,128.85000000000002,0)" xlink:href="#an"/><use transform="matrix(0.05,0,0,0.05,141.8,0)" xlink:href="#am"/><use transform="matrix(0.05,0,0,0.05,151.8,0)" xlink:href="#af"/><use transform="matrix(0.05,0,0,0.05,156.8,0)" xlink:href="#ai"/></g><path fill="#333" d="M127-220V0H93v-220H8v-28h204v28h-85" id="ao"/><path fill="#333" d="M210-169c-67 3-38 105-44 169h-31v-121c0-29-5-50-35-48C34-165 62-65 56 0H25l-1-190h30c1 10-1 24 2 32 10-44 99-50 107 0 11-21 27-35 58-36 85-2 47 119 55 194h-31v-121c0-29-5-49-35-48" id="ap"/><g id="f"><use transform="matrix(0.05,0,0,0.05,0,0)" xlink:href="#an"/><use transform="matrix(0.05,0,0,0.05,12.950000000000001,0)" xlink:href="#am"/><use transform="matrix(0.05,0,0,0.05,22.950000000000003,0)" xlink:href="#af"/><use transform="matrix(0.05,0,0,0.05,27.950000000000003,0)" xlink:href="#ai"/><use transform="matrix(0.05,0,0,0.05,37.95,0)" xlink:href="#ao"/><use transform="matrix(0.05,0,0,0.05,48.25000000000001,0)" xlink:href="#aa"/><use transform="matrix(0.05,0,0,0.05,52.20000000000002,0)" xlink:href="#ap"/><use transform="matrix(0.05,0,0,0.05,67.15,0)" xlink:href="#ai"/></g><path fill="#333" d="M233-177c-1 41-23 64-60 70L243 0h-38l-65-103H63V0H30v-248c88 3 205-21 203 71zM63-129c60-2 137 13 137-47 0-61-80-42-137-45v92" id="aq"/><g id="g"><use transform="matrix(0.05,0,0,0.05,0,0)" xlink:href="#X"/><use transform="matrix(0.05,0,0,0.05,12,0)" xlink:href="#Y"/><use transform="matrix(0.05,0,0,0.05,22,0)" xlink:href="#Y"/><use transform="matrix(0.05,0,0,0.05,32,0)" xlink:href="#Z"/><use transform="matrix(0.05,0,0,0.05,41,0)" xlink:href="#aa"/><use transform="matrix(0.05,0,0,0.05,44.95,0)" xlink:href="#ab"/><use transform="matrix(0.05,0,0,0.05,54.95,0)" xlink:href="#ac"/><use transform="matrix(0.05,0,0,0.05,64.95,0)" xlink:href="#aq"/><use transform="matrix(0.05,0,0,0.05,77.9,0)" xlink:href="#Y"/><use transform="matrix(0.05,0,0,0.05,87.9,0)" xlink:href="#Y"/><use transform="matrix(0.05,0,0,0.05,97.9,0)" xlink:href="#ap"/></g><path fill="#333" d="M30 0v-248h33v221h125V0H30" id="ar"/><path fill="#333" d="M18-100v-36l175-74v27L42-118l151 64v27" id="as"/><path fill="#333" d="M18-27v-27l151-64-151-65v-27l175 74v36" id="at"/><g id="h"><use transform="matrix(0.05,0,0,0.05,0,0)" xlink:href="#ar"/><use transform="matrix(0.05,0,0,0.05,10,0)" xlink:href="#aa"/><use transform="matrix(0.05,0,0,0.05,13.949999999999998,0)" xlink:href="#aj"/><use transform="matrix(0.05,0,0,0.05,22.95,0)" xlink:href="#af"/><use transform="matrix(0.05,0,0,0.05,27.950000000000003,0)" xlink:href="#as"/><use transform="matrix(0.05,0,0,0.05,38.45,0)" xlink:href="#X"/><use transform="matrix(0.05,0,0,0.05,50.45,0)" xlink:href="#Y"/><use transform="matrix(0.05,0,0,0.05,60.45,0)" xlink:href="#Y"/><use transform="matrix(0.05,0,0,0.05,70.45,0)" xlink:href="#Z"/><use transform="matrix(0.05,0,0,0.05,79.45,0)" xlink:href="#aa"/><use transform="matrix(0.05,0,0,0.05,83.4,0)" xlink:href="#ab"/><use transform="matrix(0.05,0,0,0.05,93.4,0)" xlink:href="#ac"/><use transform="matrix(0.05,0,0,0.05,103.4,0)" xlink:href="#aq"/><use transform="matrix(0.05,0,0,0.05,116.35000000000001,0)" xlink:href="#Y"/><use transform="matrix(0.05,0,0,0.05,126.35000000000001,0)" xlink:href="#Y"/><use transform="matrix(0.05,0,0,0.05,136.35000000000002,0)" xlink:href="#ap"/><use transform="matrix(0.05,0,0,0.05,151.3,0)" xlink:href="#at"/></g><path fill="#333" d="M24 0v-261h32V0H24" id="au"/><g id="i"><use transform="matrix(0.05,0,0,0.05,0,0)" xlink:href="#X"/><use transform="matrix(0.05,0,0,0.05,12,0)" xlink:href="#Y"/><use transform="matrix(0.05,0,0,0.05,22,0)" xlink:href="#Y"/><use transform="matrix(0.05,0,0,0.05,32,0)" xlink:href="#Z"/><use transform="matrix(0.05,0,0,0.05,41,0)" xlink:href="#aa"/><use transform="matrix(0.05,0,0,0.05,44.95,0)" xlink:href="#ab"/><use transform="matrix(0.05,0,0,0.05,54.95,0)" xlink:href="#ac"/><use transform="matrix(0.05,0,0,0.05,64.95,0)" xlink:href="#ao"/><use transform="matrix(0.05,0,0,0.05,73.9,0)" xlink:href="#Y"/><use transform="matrix(0.05,0,0,0.05,83.9,0)" xlink:href="#af"/><use transform="matrix(0.05,0,0,0.05,88.9,0)" xlink:href="#am"/><use transform="matrix(0.05,0,0,0.05,98.9,0)" xlink:href="#au"/></g><path fill="#333" d="M115-194c53 0 69 39 70 98 0 66-23 100-70 100C84 3 66-7 56-30L54 0H23l1-261h32v101c10-23 28-34 59-34zm-8 174c40 0 45-34 45-75 0-40-5-75-45-74-42 0-51 32-51 76 0 43 10 73 51 73" id="av"/><g id="j"><use transform="matrix(0.05,0,0,0.05,0,0)" xlink:href="#ae"/><use transform="matrix(0.05,0,0,0.05,10,0)" xlink:href="#Y"/><use transform="matrix(0.05,0,0,0.05,20,0)" xlink:href="#ah"/><use transform="matrix(0.05,0,0,0.05,30,0)" xlink:href="#av"/><use transform="matrix(0.05,0,0,0.05,40,0)" xlink:href="#au"/><use transform="matrix(0.05,0,0,0.05,43.95,0)" xlink:href="#ai"/></g><path fill="#333" d="M30-248c87 1 191-15 191 75 0 78-77 80-158 76V0H30v-248zm33 125c57 0 124 11 124-50 0-59-68-47-124-48v98" id="aw"/><path fill="#333" d="M179-190L93 31C79 59 56 82 12 73V49c39 6 53-20 64-50L1-190h34L92-34l54-156h33" id="ax"/><path fill="#333" d="M240 0l2-218c-23 76-54 145-80 218h-23L58-218 59 0H30v-248h44l77 211c21-75 51-140 76-211h43V0h-30" id="ay"/><path fill="#333" d="M106-169C34-169 62-67 57 0H25v-261h32l-1 103c12-21 28-36 61-36 89 0 53 116 60 194h-32v-121c2-32-8-49-39-48" id="az"/><g id="k"><use transform="matrix(0.05,0,0,0.05,0,0)" xlink:href="#aw"/><use transform="matrix(0.05,0,0,0.05,12,0)" xlink:href="#am"/><use transform="matrix(0.05,0,0,0.05,22,0)" xlink:href="#ax"/><use transform="matrix(0.05,0,0,0.05,31,0)" xlink:href="#ap"/><use transform="matrix(0.05,0,0,0.05,45.95,0)" xlink:href="#ai"/><use transform="matrix(0.05,0,0,0.05,55.95,0)" xlink:href="#ab"/><use transform="matrix(0.05,0,0,0.05,65.95,0)" xlink:href="#af"/><use transform="matrix(0.05,0,0,0.05,70.95,0)" xlink:href="#ay"/><use transform="matrix(0.05,0,0,0.05,85.9,0)" xlink:href="#ai"/><use transform="matrix(0.05,0,0,0.05,95.9,0)" xlink:href="#af"/><use transform="matrix(0.05,0,0,0.05,100.9,0)" xlink:href="#az"/><use transform="matrix(0.05,0,0,0.05,110.9,0)" xlink:href="#Y"/><use transform="matrix(0.05,0,0,0.05,120.9,0)" xlink:href="#ae"/></g><path fill="#333" d="M140-251c81 0 123 46 123 126C263-46 219 4 140 4 59 4 17-45 17-125s42-126 123-126zm0 227c63 0 89-41 89-101s-29-99-89-99c-61 0-89 39-89 99S79-25 140-24" id="aA"/><path fill="#333" d="M190 0L58-211 59 0H30v-248h39L202-35l-2-213h31V0h-41" id="aB"/><g id="l"><use transform="matrix(0.05,0,0,0.05,0,0)" xlink:href="#aA"/><use transform="matrix(0.05,0,0,0.05,14,0)" xlink:href="#al"/><use transform="matrix(0.05,0,0,0.05,19.95,0)" xlink:href="#ae"/><use transform="matrix(0.05,0,0,0.05,29.950000000000003,0)" xlink:href="#ai"/><use transform="matrix(0.05,0,0,0.05,39.95,0)" xlink:href="#al"/><use transform="matrix(0.05,0,0,0.05,45.900000000000006,0)" xlink:href="#aB"/><use transform="matrix(0.05,0,0,0.05,58.85,0)" xlink:href="#Y"/><use transform="matrix(0.05,0,0,0.05,68.85000000000001,0)" xlink:href="#af"/><use transform="matrix(0.05,0,0,0.05,73.85000000000001,0)" xlink:href="#ai"/><use transform="matrix(0.05,0,0,0.05,83.85000000000001,0)" xlink:href="#aj"/></g><path fill="#333" d="M103-251c84 0 111 97 45 133-19 10-37 24-39 52H78c0-63 77-55 77-114 0-30-21-42-52-43-32 0-53 17-56 46l-32-2c7-45 34-72 88-72zM77 0v-35h34V0H77" id="aC"/><g id="m"><use transform="matrix(0.05,0,0,0.05,0,0)" xlink:href="#aj"/><use transform="matrix(0.05,0,0,0.05,9,0)" xlink:href="#af"/><use transform="matrix(0.05,0,0,0.05,14,0)" xlink:href="#al"/><use transform="matrix(0.05,0,0,0.05,19.95,0)" xlink:href="#aa"/><use transform="matrix(0.05,0,0,0.05,23.9,0)" xlink:href="#ab"/><use transform="matrix(0.05,0,0,0.05,33.9,0)" xlink:href="#ac"/><use transform="matrix(0.05,0,0,0.05,43.9,0)" xlink:href="#aC"/></g><path fill="#333" d="M30 0v-248h187v28H63v79h144v27H63v87h162V0H30" id="aD"/><g id="n"><use transform="matrix(0.05,0,0,0.05,0,0)" xlink:href="#aD"/><use transform="matrix(0.05,0,0,0.05,12,0)" xlink:href="#ap"/><use transform="matrix(0.05,0,0,0.05,26.950000000000003,0)" xlink:href="#am"/><use transform="matrix(0.05,0,0,0.05,36.95,0)" xlink:href="#aa"/><use transform="matrix(0.05,0,0,0.05,40.900000000000006,0)" xlink:href="#au"/></g><g id="o"><use transform="matrix(0.05,0,0,0.05,0,0)" xlink:href="#aj"/><use transform="matrix(0.05,0,0,0.05,9,0)" xlink:href="#af"/><use transform="matrix(0.05,0,0,0.05,14,0)" xlink:href="#al"/><use transform="matrix(0.05,0,0,0.05,19.95,0)" xlink:href="#aa"/><use transform="matrix(0.05,0,0,0.05,23.9,0)" xlink:href="#ab"/><use transform="matrix(0.05,0,0,0.05,33.9,0)" xlink:href="#ac"/></g><path fill="#333" d="M63-220v92h138v28H63V0H30v-248h175v28H63" id="aE"/><g id="p"><use transform="matrix(0.05,0,0,0.05,0,0)" xlink:href="#aE"/><use transform="matrix(0.05,0,0,0.05,10.950000000000001,0)" xlink:href="#aa"/><use transform="matrix(0.05,0,0,0.05,14.9,0)" xlink:href="#al"/><use transform="matrix(0.05,0,0,0.05,20.85,0)" xlink:href="#aj"/><use transform="matrix(0.05,0,0,0.05,29.85,0)" xlink:href="#af"/><use transform="matrix(0.05,0,0,0.05,34.85,0)" xlink:href="#aB"/><use transform="matrix(0.05,0,0,0.05,47.800000000000004,0)" xlink:href="#am"/><use transform="matrix(0.05,0,0,0.05,57.800000000000004,0)" xlink:href="#ap"/><use transform="matrix(0.05,0,0,0.05,72.75,0)" xlink:href="#ai"/></g><g id="q"><use transform="matrix(0.05,0,0,0.05,0,0)" xlink:href="#ar"/><use transform="matrix(0.05,0,0,0.05,10,0)" xlink:href="#am"/><use transform="matrix(0.05,0,0,0.05,20,0)" xlink:href="#aj"/><use transform="matrix(0.05,0,0,0.05,29,0)" xlink:href="#af"/><use transform="matrix(0.05,0,0,0.05,34,0)" xlink:href="#aB"/><use transform="matrix(0.05,0,0,0.05,46.95,0)" xlink:href="#am"/><use transform="matrix(0.05,0,0,0.05,56.95,0)" xlink:href="#ap"/><use transform="matrix(0.05,0,0,0.05,71.9,0)" xlink:href="#ai"/></g><path fill="#333" d="M115-194c55 1 70 41 70 98S169 2 115 4C84 4 66-9 55-30l1 105H24l-1-265h31l2 30c10-21 28-34 59-34zm-8 174c40 0 45-34 45-75s-6-73-45-74c-42 0-51 32-51 76 0 43 10 73 51 73" id="aF"/><g id="r"><use transform="matrix(0.05,0,0,0.05,0,0)" xlink:href="#ak"/><use transform="matrix(0.05,0,0,0.05,12.950000000000001,0)" xlink:href="#Y"/><use transform="matrix(0.05,0,0,0.05,22.950000000000003,0)" xlink:href="#ap"/><use transform="matrix(0.05,0,0,0.05,37.900000000000006,0)" xlink:href="#aF"/><use transform="matrix(0.05,0,0,0.05,47.900000000000006,0)" xlink:href="#am"/><use transform="matrix(0.05,0,0,0.05,57.900000000000006,0)" xlink:href="#ab"/><use transform="matrix(0.05,0,0,0.05,67.9,0)" xlink:href="#ax"/><use transform="matrix(0.05,0,0,0.05,76.9,0)" xlink:href="#aB"/><use transform="matrix(0.05,0,0,0.05,89.85000000000001,0)" xlink:href="#am"/><use transform="matrix(0.05,0,0,0.05,99.85000000000001,0)" xlink:href="#ap"/><use transform="matrix(0.05,0,0,0.05,114.80000000000001,0)" xlink:href="#ai"/></g><g id="s"><use transform="matrix(0.05,0,0,0.05,0,0)" xlink:href="#ak"/><use transform="matrix(0.05,0,0,0.05,12.950000000000001,0)" xlink:href="#Y"/><use transform="matrix(0.05,0,0,0.05,22.950000000000003,0)" xlink:href="#ah"/><use transform="matrix(0.05,0,0,0.05,32.95,0)" xlink:href="#ab"/><use transform="matrix(0.05,0,0,0.05,42.95,0)" xlink:href="#af"/><use transform="matrix(0.05,0,0,0.05,47.95,0)" xlink:href="#al"/><use transform="matrix(0.05,0,0,0.05,53.900000000000006,0)" xlink:href="#ax"/></g><path fill="#333" d="M205 0l-28-72H64L36 0H1l101-248h38L239 0h-34zm-38-99l-47-123c-12 45-31 82-46 123h93" id="aG"/><g id="t"><use transform="matrix(0.05,0,0,0.05,0,0)" xlink:href="#aG"/><use transform="matrix(0.05,0,0,0.05,12,0)" xlink:href="#ae"/><use transform="matrix(0.05,0,0,0.05,22,0)" xlink:href="#ae"/><use transform="matrix(0.05,0,0,0.05,32,0)" xlink:href="#al"/><use transform="matrix(0.05,0,0,0.05,37.95,0)" xlink:href="#ai"/><use transform="matrix(0.05,0,0,0.05,47.95,0)" xlink:href="#aj"/><use transform="matrix(0.05,0,0,0.05,56.95,0)" xlink:href="#aj"/></g><path fill="#333" d="M101-251c82-7 93 87 43 132L82-64C71-53 59-42 53-27h129V0H18c2-99 128-94 128-182 0-28-16-43-45-43s-46 15-49 41l-32-3c6-41 34-60 81-64" id="aH"/><g id="u"><use transform="matrix(0.05,0,0,0.05,0,0)" xlink:href="#aG"/><use transform="matrix(0.05,0,0,0.05,12,0)" xlink:href="#ae"/><use transform="matrix(0.05,0,0,0.05,22,0)" xlink:href="#ae"/><use transform="matrix(0.05,0,0,0.05,32,0)" xlink:href="#al"/><use transform="matrix(0.05,0,0,0.05,37.95,0)" xlink:href="#ai"/><use transform="matrix(0.05,0,0,0.05,47.95,0)" xlink:href="#aj"/><use transform="matrix(0.05,0,0,0.05,56.95,0)" xlink:href="#aj"/><use transform="matrix(0.05,0,0,0.05,65.95,0)" xlink:href="#aH"/></g><g id="v"><use transform="matrix(0.05,0,0,0.05,0,0)" xlink:href="#ak"/><use transform="matrix(0.05,0,0,0.05,12.950000000000001,0)" xlink:href="#aa"/><use transform="matrix(0.05,0,0,0.05,16.900000000000002,0)" xlink:href="#af"/><use transform="matrix(0.05,0,0,0.05,21.900000000000002,0)" xlink:href="#ax"/></g><path fill="#333" d="M185-189c-5-48-123-54-124 2 14 75 158 14 163 119 3 78-121 87-175 55-17-10-28-26-33-46l33-7c5 56 141 63 141-1 0-78-155-14-162-118-5-82 145-84 179-34 5 7 8 16 11 25" id="aI"/><g id="w"><use transform="matrix(0.05,0,0,0.05,0,0)" xlink:href="#aI"/><use transform="matrix(0.05,0,0,0.05,12,0)" xlink:href="#af"/><use transform="matrix(0.05,0,0,0.05,17,0)" xlink:href="#am"/><use transform="matrix(0.05,0,0,0.05,27,0)" xlink:href="#af"/><use transform="matrix(0.05,0,0,0.05,32,0)" xlink:href="#ai"/></g><path fill="#333" d="M209 0H11v-25l151-195H24v-28h176v25L50-27h159V0" id="aJ"/><g id="x"><use transform="matrix(0.05,0,0,0.05,0,0)" xlink:href="#aJ"/><use transform="matrix(0.05,0,0,0.05,10.950000000000001,0)" xlink:href="#aa"/><use transform="matrix(0.05,0,0,0.05,14.9,0)" xlink:href="#aF"/></g><g id="y"><use transform="matrix(0.05,0,0,0.05,0,0)" xlink:href="#aw"/><use transform="matrix(0.05,0,0,0.05,12,0)" xlink:href="#az"/><use transform="matrix(0.05,0,0,0.05,22,0)" xlink:href="#Y"/><use transform="matrix(0.05,0,0,0.05,32,0)" xlink:href="#ab"/><use transform="matrix(0.05,0,0,0.05,42,0)" xlink:href="#ai"/></g><g id="z"><use transform="matrix(0.05,0,0,0.05,0,0)" xlink:href="#X"/><use transform="matrix(0.05,0,0,0.05,12,0)" xlink:href="#Y"/><use transform="matrix(0.05,0,0,0.05,22,0)" xlink:href="#Y"/><use transform="matrix(0.05,0,0,0.05,32,0)" xlink:href="#Z"/><use transform="matrix(0.05,0,0,0.05,41,0)" xlink:href="#aa"/><use transform="matrix(0.05,0,0,0.05,44.95,0)" xlink:href="#ab"/><use transform="matrix(0.05,0,0,0.05,54.95,0)" xlink:href="#ac"/><use transform="matrix(0.05,0,0,0.05,64.95,0)" xlink:href="#aj"/></g><g id="A"><use transform="matrix(0.05,0,0,0.05,0,0)" xlink:href="#ar"/><use transform="matrix(0.05,0,0,0.05,10,0)" xlink:href="#aa"/><use transform="matrix(0.05,0,0,0.05,13.949999999999998,0)" xlink:href="#aj"/><use transform="matrix(0.05,0,0,0.05,22.95,0)" xlink:href="#af"/><use transform="matrix(0.05,0,0,0.05,27.950000000000003,0)" xlink:href="#as"/><use transform="matrix(0.05,0,0,0.05,38.45,0)" xlink:href="#X"/><use transform="matrix(0.05,0,0,0.05,50.45,0)" xlink:href="#Y"/><use transform="matrix(0.05,0,0,0.05,60.45,0)" xlink:href="#Y"/><use transform="matrix(0.05,0,0,0.05,70.45,0)" xlink:href="#Z"/><use transform="matrix(0.05,0,0,0.05,79.45,0)" xlink:href="#aa"/><use transform="matrix(0.05,0,0,0.05,83.4,0)" xlink:href="#ab"/><use transform="matrix(0.05,0,0,0.05,93.4,0)" xlink:href="#ac"/><use transform="matrix(0.05,0,0,0.05,103.4,0)" xlink:href="#at"/></g><g id="B"><use transform="matrix(0.05,0,0,0.05,0,0)" xlink:href="#aq"/><use transform="matrix(0.05,0,0,0.05,12.950000000000001,0)" xlink:href="#Y"/><use transform="matrix(0.05,0,0,0.05,22.950000000000003,0)" xlink:href="#Y"/><use transform="matrix(0.05,0,0,0.05,32.95,0)" xlink:href="#ap"/></g><path fill="#333" d="M96-169c-40 0-48 33-48 73s9 75 48 75c24 0 41-14 43-38l32 2c-6 37-31 61-74 61-59 0-76-41-82-99-10-93 101-131 147-64 4 7 5 14 7 22l-32 3c-4-21-16-35-41-35" id="aK"/><g id="C"><use transform="matrix(0.05,0,0,0.05,0,0)" xlink:href="#ak"/><use transform="matrix(0.05,0,0,0.05,12.950000000000001,0)" xlink:href="#az"/><use transform="matrix(0.05,0,0,0.05,22.950000000000003,0)" xlink:href="#ai"/><use transform="matrix(0.05,0,0,0.05,32.95,0)" xlink:href="#aK"/><use transform="matrix(0.05,0,0,0.05,41.95,0)" xlink:href="#Z"/><use transform="matrix(0.05,0,0,0.05,50.95,0)" xlink:href="#ad"/><use transform="matrix(0.05,0,0,0.05,55.95,0)" xlink:href="#ab"/><use transform="matrix(0.05,0,0,0.05,65.95,0)" xlink:href="#an"/><use transform="matrix(0.05,0,0,0.05,78.9,0)" xlink:href="#am"/><use transform="matrix(0.05,0,0,0.05,88.9,0)" xlink:href="#af"/><use transform="matrix(0.05,0,0,0.05,93.9,0)" xlink:href="#ai"/></g><g id="D"><use transform="matrix(0.05,0,0,0.05,0,0)" xlink:href="#ak"/><use transform="matrix(0.05,0,0,0.05,12.950000000000001,0)" xlink:href="#az"/><use transform="matrix(0.05,0,0,0.05,22.950000000000003,0)" xlink:href="#ai"/><use transform="matrix(0.05,0,0,0.05,32.95,0)" xlink:href="#aK"/><use transform="matrix(0.05,0,0,0.05,41.95,0)" xlink:href="#Z"/><use transform="matrix(0.05,0,0,0.05,50.95,0)" xlink:href="#aA"/><use transform="matrix(0.05,0,0,0.05,64.95,0)" xlink:href="#ah"/><use transform="matrix(0.05,0,0,0.05,74.95,0)" xlink:href="#af"/><use transform="matrix(0.05,0,0,0.05,79.95,0)" xlink:href="#an"/><use transform="matrix(0.05,0,0,0.05,92.9,0)" xlink:href="#am"/><use transform="matrix(0.05,0,0,0.05,102.9,0)" xlink:href="#af"/><use transform="matrix(0.05,0,0,0.05,107.9,0)" xlink:href="#ai"/></g><path fill="#333" d="M101-234c-31-9-42 10-38 44h38v23H63V0H32v-167H5v-23h27c-7-52 17-82 69-68v24" id="aL"/><g id="E"><use transform="matrix(0.05,0,0,0.05,0,0)" xlink:href="#aB"/><use transform="matrix(0.05,0,0,0.05,12.950000000000001,0)" xlink:href="#ah"/><use transform="matrix(0.05,0,0,0.05,22.950000000000003,0)" xlink:href="#ap"/><use transform="matrix(0.05,0,0,0.05,37.900000000000006,0)" xlink:href="#aA"/><use transform="matrix(0.05,0,0,0.05,51.900000000000006,0)" xlink:href="#aL"/><use transform="matrix(0.05,0,0,0.05,56.900000000000006,0)" xlink:href="#aB"/><use transform="matrix(0.05,0,0,0.05,69.85000000000001,0)" xlink:href="#aa"/><use transform="matrix(0.05,0,0,0.05,73.80000000000001,0)" xlink:href="#ac"/><use transform="matrix(0.05,0,0,0.05,83.80000000000001,0)" xlink:href="#az"/><use transform="matrix(0.05,0,0,0.05,93.80000000000001,0)" xlink:href="#af"/><use transform="matrix(0.05,0,0,0.05,98.80000000000001,0)" xlink:href="#aj"/></g><g id="F"><use transform="matrix(0.05,0,0,0.05,0,0)" xlink:href="#aB"/><use transform="matrix(0.05,0,0,0.05,12.950000000000001,0)" xlink:href="#ah"/><use transform="matrix(0.05,0,0,0.05,22.950000000000003,0)" xlink:href="#ap"/><use transform="matrix(0.05,0,0,0.05,37.900000000000006,0)" xlink:href="#ag"/><use transform="matrix(0.05,0,0,0.05,51.900000000000006,0)" xlink:href="#ah"/><use transform="matrix(0.05,0,0,0.05,61.900000000000006,0)" xlink:href="#ai"/><use transform="matrix(0.05,0,0,0.05,71.9,0)" xlink:href="#aj"/><use transform="matrix(0.05,0,0,0.05,80.9,0)" xlink:href="#af"/><use transform="matrix(0.05,0,0,0.05,85.9,0)" xlink:href="#aj"/></g><g id="G"><use transform="matrix(0.05,0,0,0.05,0,0)" xlink:href="#ao"/><use transform="matrix(0.05,0,0,0.05,8.950000000000001,0)" xlink:href="#Y"/><use transform="matrix(0.05,0,0,0.05,18.950000000000003,0)" xlink:href="#af"/><use transform="matrix(0.05,0,0,0.05,23.950000000000003,0)" xlink:href="#am"/><use transform="matrix(0.05,0,0,0.05,33.95,0)" xlink:href="#au"/><use transform="matrix(0.05,0,0,0.05,37.900000000000006,0)" xlink:href="#aw"/><use transform="matrix(0.05,0,0,0.05,49.900000000000006,0)" xlink:href="#al"/><use transform="matrix(0.05,0,0,0.05,55.85,0)" xlink:href="#aa"/><use transform="matrix(0.05,0,0,0.05,59.80000000000001,0)" xlink:href="#aK"/><use transform="matrix(0.05,0,0,0.05,68.80000000000001,0)" xlink:href="#ai"/></g><path fill="#333" d="M141 0L90-78 38 0H4l68-98-65-92h35l48 74 47-74h35l-64 92 68 98h-35" id="aM"/><path fill="#333" d="M108 0H70L1-190h34L89-25l56-165h34" id="aN"/><g id="H"><use transform="matrix(0.05,0,0,0.05,0,0)" xlink:href="#aD"/><use transform="matrix(0.05,0,0,0.05,12,0)" xlink:href="#aM"/><use transform="matrix(0.05,0,0,0.05,21,0)" xlink:href="#af"/><use transform="matrix(0.05,0,0,0.05,26,0)" xlink:href="#al"/><use transform="matrix(0.05,0,0,0.05,31.950000000000003,0)" xlink:href="#am"/><use transform="matrix(0.05,0,0,0.05,41.95,0)" xlink:href="#aI"/><use transform="matrix(0.05,0,0,0.05,53.95,0)" xlink:href="#ai"/><use transform="matrix(0.05,0,0,0.05,63.95,0)" xlink:href="#al"/><use transform="matrix(0.05,0,0,0.05,69.9,0)" xlink:href="#aN"/><use transform="matrix(0.05,0,0,0.05,78.9,0)" xlink:href="#aa"/><use transform="matrix(0.05,0,0,0.05,82.85000000000001,0)" xlink:href="#aK"/><use transform="matrix(0.05,0,0,0.05,91.85000000000001,0)" xlink:href="#ai"/><use transform="matrix(0.05,0,0,0.05,101.85000000000001,0)" xlink:href="#aj"/></g><g id="I"><use transform="matrix(0.05,0,0,0.05,0,0)" xlink:href="#ar"/><use transform="matrix(0.05,0,0,0.05,10,0)" xlink:href="#aa"/><use transform="matrix(0.05,0,0,0.05,13.949999999999998,0)" xlink:href="#aj"/><use transform="matrix(0.05,0,0,0.05,22.95,0)" xlink:href="#af"/><use transform="matrix(0.05,0,0,0.05,27.950000000000003,0)" xlink:href="#as"/><use transform="matrix(0.05,0,0,0.05,38.45,0)" xlink:href="#aI"/><use transform="matrix(0.05,0,0,0.05,50.45,0)" xlink:href="#ai"/><use transform="matrix(0.05,0,0,0.05,60.45,0)" xlink:href="#al"/><use transform="matrix(0.05,0,0,0.05,66.4,0)" xlink:href="#aN"/><use transform="matrix(0.05,0,0,0.05,75.4,0)" xlink:href="#aa"/><use transform="matrix(0.05,0,0,0.05,79.35000000000001,0)" xlink:href="#aK"/><use transform="matrix(0.05,0,0,0.05,88.35000000000001,0)" xlink:href="#ai"/><use transform="matrix(0.05,0,0,0.05,98.35000000000001,0)" xlink:href="#at"/></g><g id="J"><use transform="matrix(0.05,0,0,0.05,0,0)" xlink:href="#aB"/><use transform="matrix(0.05,0,0,0.05,12.950000000000001,0)" xlink:href="#am"/><use transform="matrix(0.05,0,0,0.05,22.950000000000003,0)" xlink:href="#ap"/><use transform="matrix(0.05,0,0,0.05,37.900000000000006,0)" xlink:href="#ai"/></g><g id="K"><use transform="matrix(0.05,0,0,0.05,0,0)" xlink:href="#X"/><use transform="matrix(0.05,0,0,0.05,12,0)" xlink:href="#am"/><use transform="matrix(0.05,0,0,0.05,22,0)" xlink:href="#aj"/><use transform="matrix(0.05,0,0,0.05,31,0)" xlink:href="#ai"/><use transform="matrix(0.05,0,0,0.05,41,0)" xlink:href="#aw"/><use transform="matrix(0.05,0,0,0.05,53,0)" xlink:href="#al"/><use transform="matrix(0.05,0,0,0.05,58.95,0)" xlink:href="#aa"/><use transform="matrix(0.05,0,0,0.05,62.900000000000006,0)" xlink:href="#aK"/><use transform="matrix(0.05,0,0,0.05,71.9,0)" xlink:href="#ai"/></g><g id="L"><use transform="matrix(0.05,0,0,0.05,0,0)" xlink:href="#aG"/><use transform="matrix(0.05,0,0,0.05,12,0)" xlink:href="#ae"/><use transform="matrix(0.05,0,0,0.05,22,0)" xlink:href="#ae"/><use transform="matrix(0.05,0,0,0.05,32,0)" xlink:href="#aa"/><use transform="matrix(0.05,0,0,0.05,35.95,0)" xlink:href="#af"/><use transform="matrix(0.05,0,0,0.05,40.95,0)" xlink:href="#aa"/><use transform="matrix(0.05,0,0,0.05,44.900000000000006,0)" xlink:href="#Y"/><use transform="matrix(0.05,0,0,0.05,54.900000000000006,0)" xlink:href="#ab"/><use transform="matrix(0.05,0,0,0.05,64.9,0)" xlink:href="#am"/><use transform="matrix(0.05,0,0,0.05,74.9,0)" xlink:href="#au"/><use transform="matrix(0.05,0,0,0.05,78.85000000000001,0)" xlink:href="#ag"/><use transform="matrix(0.05,0,0,0.05,92.85000000000001,0)" xlink:href="#ah"/><use transform="matrix(0.05,0,0,0.05,102.85000000000001,0)" xlink:href="#ai"/><use transform="matrix(0.05,0,0,0.05,112.85000000000001,0)" xlink:href="#aj"/><use transform="matrix(0.05,0,0,0.05,121.85000000000001,0)" xlink:href="#af"/><use transform="matrix(0.05,0,0,0.05,126.85000000000001,0)" xlink:href="#aw"/><use transform="matrix(0.05,0,0,0.05,138.85000000000002,0)" xlink:href="#al"/><use transform="matrix(0.05,0,0,0.05,144.8,0)" xlink:href="#aa"/><use transform="matrix(0.05,0,0,0.05,148.75,0)" xlink:href="#aK"/><use transform="matrix(0.05,0,0,0.05,157.75,0)" xlink:href="#ai"/></g><g id="M"><use transform="matrix(0.05,0,0,0.05,0,0)" xlink:href="#ay"/><use transform="matrix(0.05,0,0,0.05,14.950000000000001,0)" xlink:href="#am"/><use transform="matrix(0.05,0,0,0.05,24.950000000000003,0)" xlink:href="#aM"/><use transform="matrix(0.05,0,0,0.05,33.95,0)" xlink:href="#ag"/><use transform="matrix(0.05,0,0,0.05,47.95,0)" xlink:href="#ah"/><use transform="matrix(0.05,0,0,0.05,57.95,0)" xlink:href="#ai"/><use transform="matrix(0.05,0,0,0.05,67.95,0)" xlink:href="#aj"/><use transform="matrix(0.05,0,0,0.05,76.95,0)" xlink:href="#af"/><use transform="matrix(0.05,0,0,0.05,81.95,0)" xlink:href="#aj"/></g><g id="N"><use transform="matrix(0.05,0,0,0.05,0,0)" xlink:href="#aB"/><use transform="matrix(0.05,0,0,0.05,12.950000000000001,0)" xlink:href="#ah"/><use transform="matrix(0.05,0,0,0.05,22.950000000000003,0)" xlink:href="#ap"/><use transform="matrix(0.05,0,0,0.05,37.900000000000006,0)" xlink:href="#X"/><use transform="matrix(0.05,0,0,0.05,49.900000000000006,0)" xlink:href="#ai"/><use transform="matrix(0.05,0,0,0.05,59.900000000000006,0)" xlink:href="#ae"/><use transform="matrix(0.05,0,0,0.05,69.9,0)" xlink:href="#aj"/></g><g id="O"><use transform="matrix(0.05,0,0,0.05,0,0)" xlink:href="#aE"/><use transform="matrix(0.05,0,0,0.05,10.950000000000001,0)" xlink:href="#ai"/><use transform="matrix(0.05,0,0,0.05,20.950000000000003,0)" xlink:href="#am"/><use transform="matrix(0.05,0,0,0.05,30.950000000000003,0)" xlink:href="#af"/><use transform="matrix(0.05,0,0,0.05,35.95,0)" xlink:href="#ah"/><use transform="matrix(0.05,0,0,0.05,45.95,0)" xlink:href="#al"/><use transform="matrix(0.05,0,0,0.05,51.900000000000006,0)" xlink:href="#ai"/><use transform="matrix(0.05,0,0,0.05,61.900000000000006,0)" xlink:href="#aj"/></g><g id="P"><use transform="matrix(0.05,0,0,0.05,0,0)" xlink:href="#ar"/><use transform="matrix(0.05,0,0,0.05,10,0)" xlink:href="#aa"/><use transform="matrix(0.05,0,0,0.05,13.949999999999998,0)" xlink:href="#aj"/><use transform="matrix(0.05,0,0,0.05,22.95,0)" xlink:href="#af"/><use transform="matrix(0.05,0,0,0.05,27.950000000000003,0)" xlink:href="#as"/><use transform="matrix(0.05,0,0,0.05,38.45,0)" xlink:href="#aE"/><use transform="matrix(0.05,0,0,0.05,49.400000000000006,0)" xlink:href="#ai"/><use transform="matrix(0.05,0,0,0.05,59.400000000000006,0)" xlink:href="#am"/><use transform="matrix(0.05,0,0,0.05,69.4,0)" xlink:href="#af"/><use transform="matrix(0.05,0,0,0.05,74.4,0)" xlink:href="#ah"/><use transform="matrix(0.05,0,0,0.05,84.4,0)" xlink:href="#al"/><use transform="matrix(0.05,0,0,0.05,90.35000000000001,0)" xlink:href="#ai"/><use transform="matrix(0.05,0,0,0.05,100.35000000000001,0)" xlink:href="#at"/></g><path fill="#333" d="M232-93c-1 65-40 97-104 97C67 4 28-28 28-90v-158h33c8 89-33 224 67 224 102 0 64-133 71-224h33v155" id="aO"/><g id="Q"><use transform="matrix(0.05,0,0,0.05,0,0)" xlink:href="#aw"/><use transform="matrix(0.05,0,0,0.05,12,0)" xlink:href="#al"/><use transform="matrix(0.05,0,0,0.05,17.95,0)" xlink:href="#aa"/><use transform="matrix(0.05,0,0,0.05,21.9,0)" xlink:href="#ap"/><use transform="matrix(0.05,0,0,0.05,36.85,0)" xlink:href="#am"/><use transform="matrix(0.05,0,0,0.05,46.85,0)" xlink:href="#al"/><use transform="matrix(0.05,0,0,0.05,52.800000000000004,0)" xlink:href="#ax"/><use transform="matrix(0.05,0,0,0.05,61.800000000000004,0)" xlink:href="#ad"/><use transform="matrix(0.05,0,0,0.05,66.80000000000001,0)" xlink:href="#ap"/><use transform="matrix(0.05,0,0,0.05,81.75000000000001,0)" xlink:href="#am"/><use transform="matrix(0.05,0,0,0.05,91.75000000000001,0)" xlink:href="#ac"/><use transform="matrix(0.05,0,0,0.05,101.75000000000001,0)" xlink:href="#ai"/><use transform="matrix(0.05,0,0,0.05,111.75,0)" xlink:href="#aO"/><use transform="matrix(0.05,0,0,0.05,124.7,0)" xlink:href="#al"/><use transform="matrix(0.05,0,0,0.05,130.65,0)" xlink:href="#au"/></g><g id="R"><use transform="matrix(0.05,0,0,0.05,0,0)" xlink:href="#aI"/><use transform="matrix(0.05,0,0,0.05,12,0)" xlink:href="#ai"/><use transform="matrix(0.05,0,0,0.05,22,0)" xlink:href="#aK"/><use transform="matrix(0.05,0,0,0.05,31,0)" xlink:href="#Y"/><use transform="matrix(0.05,0,0,0.05,41,0)" xlink:href="#ab"/><use transform="matrix(0.05,0,0,0.05,51,0)" xlink:href="#ae"/><use transform="matrix(0.05,0,0,0.05,61,0)" xlink:href="#am"/><use transform="matrix(0.05,0,0,0.05,71,0)" xlink:href="#al"/><use transform="matrix(0.05,0,0,0.05,76.95,0)" xlink:href="#ax"/><use transform="matrix(0.05,0,0,0.05,85.95,0)" xlink:href="#ad"/><use transform="matrix(0.05,0,0,0.05,90.95,0)" xlink:href="#ap"/><use transform="matrix(0.05,0,0,0.05,105.9,0)" xlink:href="#am"/><use transform="matrix(0.05,0,0,0.05,115.9,0)" xlink:href="#ac"/><use transform="matrix(0.05,0,0,0.05,125.9,0)" xlink:href="#ai"/><use transform="matrix(0.05,0,0,0.05,135.9,0)" xlink:href="#aO"/><use transform="matrix(0.05,0,0,0.05,148.85,0)" xlink:href="#al"/><use transform="matrix(0.05,0,0,0.05,154.79999999999998,0)" xlink:href="#au"/><use transform="matrix(0.05,0,0,0.05,158.74999999999997,0)" xlink:href="#aj"/></g><g id="S"><use transform="matrix(0.05,0,0,0.05,0,0)" xlink:href="#ar"/><use transform="matrix(0.05,0,0,0.05,10,0)" xlink:href="#aa"/><use transform="matrix(0.05,0,0,0.05,13.949999999999998,0)" xlink:href="#aj"/><use transform="matrix(0.05,0,0,0.05,22.95,0)" xlink:href="#af"/><use transform="matrix(0.05,0,0,0.05,27.950000000000003,0)" xlink:href="#as"/><use transform="matrix(0.05,0,0,0.05,38.45,0)" xlink:href="#aj"/><use transform="matrix(0.05,0,0,0.05,47.45,0)" xlink:href="#af"/><use transform="matrix(0.05,0,0,0.05,52.45,0)" xlink:href="#al"/><use transform="matrix(0.05,0,0,0.05,58.400000000000006,0)" xlink:href="#aa"/><use transform="matrix(0.05,0,0,0.05,62.35,0)" xlink:href="#ab"/><use transform="matrix(0.05,0,0,0.05,72.35000000000001,0)" xlink:href="#ac"/><use transform="matrix(0.05,0,0,0.05,82.35000000000001,0)" xlink:href="#at"/></g><g id="T"><use transform="matrix(0.05,0,0,0.05,0,0)" xlink:href="#aE"/><use transform="matrix(0.05,0,0,0.05,10.950000000000001,0)" xlink:href="#ai"/><use transform="matrix(0.05,0,0,0.05,20.950000000000003,0)" xlink:href="#am"/><use transform="matrix(0.05,0,0,0.05,30.950000000000003,0)" xlink:href="#af"/><use transform="matrix(0.05,0,0,0.05,35.95,0)" xlink:href="#ah"/><use transform="matrix(0.05,0,0,0.05,45.95,0)" xlink:href="#al"/><use transform="matrix(0.05,0,0,0.05,51.900000000000006,0)" xlink:href="#ai"/></g><g id="U"><use transform="matrix(0.05,0,0,0.05,0,0)" xlink:href="#aE"/><use transform="matrix(0.05,0,0,0.05,10.950000000000001,0)" xlink:href="#ai"/><use transform="matrix(0.05,0,0,0.05,20.950000000000003,0)" xlink:href="#am"/><use transform="matrix(0.05,0,0,0.05,30.950000000000003,0)" xlink:href="#af"/><use transform="matrix(0.05,0,0,0.05,35.95,0)" xlink:href="#ah"/><use transform="matrix(0.05,0,0,0.05,45.95,0)" xlink:href="#al"/><use transform="matrix(0.05,0,0,0.05,51.900000000000006,0)" xlink:href="#ai"/><use transform="matrix(0.05,0,0,0.05,61.900000000000006,0)" xlink:href="#aB"/><use transform="matrix(0.05,0,0,0.05,74.85000000000001,0)" xlink:href="#am"/><use transform="matrix(0.05,0,0,0.05,84.85000000000001,0)" xlink:href="#ap"/><use transform="matrix(0.05,0,0,0.05,99.80000000000001,0)" xlink:href="#ai"/></g><g id="V"><use transform="matrix(0.05,0,0,0.05,0,0)" xlink:href="#aI"/><use transform="matrix(0.05,0,0,0.05,12,0)" xlink:href="#ai"/><use transform="matrix(0.05,0,0,0.05,22,0)" xlink:href="#al"/><use transform="matrix(0.05,0,0,0.05,27.950000000000003,0)" xlink:href="#aN"/><use transform="matrix(0.05,0,0,0.05,36.95,0)" xlink:href="#aa"/><use transform="matrix(0.05,0,0,0.05,40.900000000000006,0)" xlink:href="#aK"/><use transform="matrix(0.05,0,0,0.05,49.900000000000006,0)" xlink:href="#ai"/></g><g id="W"><use transform="matrix(0.05,0,0,0.05,0,0)" xlink:href="#ak"/><use transform="matrix(0.05,0,0,0.05,12.950000000000001,0)" xlink:href="#Y"/><use transform="matrix(0.05,0,0,0.05,22.950000000000003,0)" xlink:href="#aj"/><use transform="matrix(0.05,0,0,0.05,31.950000000000003,0)" xlink:href="#af"/></g></defs></g></svg>